<svg width="60" height="60" viewBox="0 0 60 60" fill="none" xmlns="http://www.w3.org/2000/svg">
<circle cx="30" cy="30" r="30" fill="#2E77B1"/>
<path d="M30 21V30H36.75M43.5 30C43.5 31.7728 43.1508 33.5283 42.4724 35.1662C41.7939 36.8041 40.7995 38.2923 39.5459 39.5459C38.2923 40.7995 36.8041 41.7939 35.1662 42.4724C33.5283 43.1508 31.7728 43.5 30 43.5C28.2272 43.5 26.4717 43.1508 24.8338 42.4724C23.1959 41.7939 21.7076 40.7995 20.4541 39.5459C19.2005 38.2923 18.2061 36.8041 17.5276 35.1662C16.8492 33.5283 16.5 31.7728 16.5 30C16.5 26.4196 17.9223 22.9858 20.4541 20.4541C22.9858 17.9223 26.4196 16.5 30 16.5C33.5804 16.5 37.0142 17.9223 39.5459 20.4541C42.0777 22.9858 43.5 26.4196 43.5 30Z" stroke="white" stroke-width="1.5" stroke-linecap="round" stroke-linejoin="round"/>
</svg>
