<svg width="60" height="60" viewBox="0 0 60 60" fill="none" xmlns="http://www.w3.org/2000/svg">
<circle cx="30" cy="30" r="30" fill="#2E77B1"/>
<path d="M22.125 16.5V19.875M37.875 16.5V19.875M16.5 40.125V23.25C16.5 22.3549 16.8556 21.4964 17.4885 20.8635C18.1214 20.2306 18.9799 19.875 19.875 19.875H40.125C41.0201 19.875 41.8785 20.2306 42.5115 20.8635C43.1444 21.4964 43.5 22.3549 43.5 23.25V40.125M16.5 40.125C16.5 41.0201 16.8556 41.8785 17.4885 42.5115C18.1214 43.1444 18.9799 43.5 19.875 43.5H40.125C41.0201 43.5 41.8785 43.1444 42.5115 42.5115C43.1444 41.8785 43.5 41.0201 43.5 40.125M16.5 40.125V28.875C16.5 27.9799 16.8556 27.1214 17.4885 26.4885C18.1214 25.8556 18.9799 25.5 19.875 25.5H40.125C41.0201 25.5 41.8785 25.8556 42.5115 26.4885C43.1444 27.1214 43.5 27.9799 43.5 28.875V40.125M30 31.125H30.012V31.137H30V31.125ZM30 34.5H30.012V34.512H30V34.5ZM30 37.875H30.012V37.887H30V37.875ZM26.625 34.5H26.637V34.512H26.625V34.5ZM26.625 37.875H26.637V37.887H26.625V37.875ZM23.25 34.5H23.262V34.512H23.25V34.5ZM23.25 37.875H23.262V37.887H23.25V37.875ZM33.375 31.125H33.387V31.137H33.375V31.125ZM33.375 34.5H33.387V34.512H33.375V34.5ZM33.375 37.875H33.387V37.887H33.375V37.875ZM36.75 31.125H36.762V31.137H36.75V31.125ZM36.75 34.5H36.762V34.512H36.75V34.5Z" stroke="white" stroke-width="1.5" stroke-linecap="round" stroke-linejoin="round"/>
</svg>
