<svg width="40" height="40" viewBox="0 0 40 40" fill="none" xmlns="http://www.w3.org/2000/svg">
<path d="M21.25 21.25C21.25 21.9404 20.6904 22.5 20 22.5C19.3096 22.5 18.75 21.9404 18.75 21.25C18.75 20.5596 19.3096 20 20 20C20.6904 20 21.25 20.5596 21.25 21.25Z" fill="black"/>
<path d="M12.5 26.25C13.1904 26.25 13.75 25.6904 13.75 25C13.75 24.3096 13.1904 23.75 12.5 23.75C11.8096 23.75 11.25 24.3096 11.25 25C11.25 25.6904 11.8096 26.25 12.5 26.25Z" fill="black"/>
<path d="M13.75 28.75C13.75 29.4404 13.1904 30 12.5 30C11.8096 30 11.25 29.4404 11.25 28.75C11.25 28.0596 11.8096 27.5 12.5 27.5C13.1904 27.5 13.75 28.0596 13.75 28.75Z" fill="black"/>
<path d="M16.25 26.25C16.9404 26.25 17.5 25.6904 17.5 25C17.5 24.3096 16.9404 23.75 16.25 23.75C15.5596 23.75 15 24.3096 15 25C15 25.6904 15.5596 26.25 16.25 26.25Z" fill="black"/>
<path d="M17.5 28.75C17.5 29.4404 16.9404 30 16.25 30C15.5596 30 15 29.4404 15 28.75C15 28.0596 15.5596 27.5 16.25 27.5C16.9404 27.5 17.5 28.0596 17.5 28.75Z" fill="black"/>
<path d="M20 26.25C20.6904 26.25 21.25 25.6904 21.25 25C21.25 24.3096 20.6904 23.75 20 23.75C19.3096 23.75 18.75 24.3096 18.75 25C18.75 25.6904 19.3096 26.25 20 26.25Z" fill="black"/>
<path d="M21.25 28.75C21.25 29.4404 20.6904 30 20 30C19.3096 30 18.75 29.4404 18.75 28.75C18.75 28.0596 19.3096 27.5 20 27.5C20.6904 27.5 21.25 28.0596 21.25 28.75Z" fill="black"/>
<path d="M23.75 26.25C24.4404 26.25 25 25.6904 25 25C25 24.3096 24.4404 23.75 23.75 23.75C23.0596 23.75 22.5 24.3096 22.5 25C22.5 25.6904 23.0596 26.25 23.75 26.25Z" fill="black"/>
<path d="M25 28.75C25 29.4404 24.4404 30 23.75 30C23.0596 30 22.5 29.4404 22.5 28.75C22.5 28.0596 23.0596 27.5 23.75 27.5C24.4404 27.5 25 28.0596 25 28.75Z" fill="black"/>
<path d="M27.5 26.25C28.1904 26.25 28.75 25.6904 28.75 25C28.75 24.3096 28.1904 23.75 27.5 23.75C26.8096 23.75 26.25 24.3096 26.25 25C26.25 25.6904 26.8096 26.25 27.5 26.25Z" fill="black"/>
<path d="M25 21.25C25 21.9404 24.4404 22.5 23.75 22.5C23.0596 22.5 22.5 21.9404 22.5 21.25C22.5 20.5596 23.0596 20 23.75 20C24.4404 20 25 20.5596 25 21.25Z" fill="black"/>
<path d="M27.5 22.5C28.1904 22.5 28.75 21.9404 28.75 21.25C28.75 20.5596 28.1904 20 27.5 20C26.8096 20 26.25 20.5596 26.25 21.25C26.25 21.9404 26.8096 22.5 27.5 22.5Z" fill="black"/>
<path fill-rule="evenodd" clip-rule="evenodd" d="M11.25 3.75C11.9404 3.75 12.5 4.30964 12.5 5V7.5H27.5V5C27.5 4.30964 28.0596 3.75 28.75 3.75C29.4404 3.75 30 4.30964 30 5V7.5H31.25C34.0114 7.5 36.25 9.73858 36.25 12.5V31.25C36.25 34.0114 34.0114 36.25 31.25 36.25H8.75C5.98858 36.25 3.75 34.0114 3.75 31.25V12.5C3.75 9.73858 5.98858 7.5 8.75 7.5H10V5C10 4.30964 10.5596 3.75 11.25 3.75ZM33.75 18.75C33.75 17.3693 32.6307 16.25 31.25 16.25H8.75C7.36929 16.25 6.25 17.3693 6.25 18.75V31.25C6.25 32.6307 7.36929 33.75 8.75 33.75H31.25C32.6307 33.75 33.75 32.6307 33.75 31.25V18.75Z" fill="black"/>
</svg>
