<svg width="30" height="29" viewBox="0 0 30 29" fill="none" xmlns="http://www.w3.org/2000/svg">
<path d="M11.738 11.2358L18.5965 17.8387M18.5965 11.2358L11.738 17.8387M28.8843 14.5372C28.8843 16.2715 28.5295 17.9887 27.8401 19.5909C27.1508 21.1931 26.1404 22.6489 24.8666 23.8752C23.5929 25.1015 22.0807 26.0742 20.4165 26.7378C18.7523 27.4015 16.9686 27.7431 15.1672 27.7431C13.3659 27.7431 11.5822 27.4015 9.91795 26.7378C8.25372 26.0742 6.74157 25.1015 5.46782 23.8752C4.19408 22.6489 3.18369 21.1931 2.49434 19.5909C1.805 17.9887 1.4502 16.2715 1.4502 14.5372C1.4502 11.0348 2.89538 7.67589 5.46782 5.19932C8.04027 2.72275 11.5292 1.33142 15.1672 1.33142C18.8052 1.33142 22.2942 2.72275 24.8666 5.19932C27.4391 7.67589 28.8843 11.0348 28.8843 14.5372Z" stroke="#F02D2D" stroke-width="1.5" stroke-linecap="round" stroke-linejoin="round"/>
</svg>
