<svg width="23" height="22" viewBox="0 0 23 22" fill="none" xmlns="http://www.w3.org/2000/svg">
<path d="M11.9562 4.65204V11.255H17.1001M22.244 11.255C22.244 12.5556 21.9779 13.8435 21.4609 15.0452C20.9439 16.2468 20.1861 17.3387 19.2308 18.2584C18.2755 19.1781 17.1414 19.9077 15.8932 20.4054C14.645 20.9031 13.3072 21.1593 11.9562 21.1593C10.6052 21.1593 9.26744 20.9031 8.01927 20.4054C6.7711 19.9077 5.63699 19.1781 4.68168 18.2584C3.72637 17.3387 2.96858 16.2468 2.45157 15.0452C1.93456 13.8435 1.66846 12.5556 1.66846 11.255C1.66846 8.62815 2.75234 6.10894 4.68168 4.25151C6.61101 2.39408 9.22775 1.35059 11.9562 1.35059C14.6847 1.35059 17.3015 2.39408 19.2308 4.25151C21.1601 6.10894 22.244 8.62815 22.244 11.255Z" stroke="#7F7F7F" stroke-width="1.5" stroke-linecap="round" stroke-linejoin="round"/>
</svg>
