<svg width="56" height="56" viewBox="0 0 56 56" fill="none" xmlns="http://www.w3.org/2000/svg">
<path d="M0 28C0 12.536 12.536 0 28 0V0C43.464 0 56 12.536 56 28V28C56 43.464 43.464 56 28 56V56C12.536 56 0 43.464 0 28V28Z" fill="#91BF76"/>
<path d="M43 43L34.3387 34.3387M34.3387 34.3387C36.6829 31.9945 37.9999 28.8151 37.9999 25.4999C37.9999 22.1847 36.6829 19.0053 34.3387 16.6611C31.9945 14.317 28.8151 13 25.4999 13C22.1847 13 19.0053 14.317 16.6611 16.6611C14.317 19.0053 13 22.1847 13 25.4999C13 28.8151 14.317 31.9945 16.6611 34.3387C19.0053 36.6829 22.1847 37.9999 25.4999 37.9999C28.8151 37.9999 31.9945 36.6829 34.3387 34.3387Z" stroke="black" stroke-width="1.5" stroke-linecap="round" stroke-linejoin="round"/>
</svg>
