<svg width="42" height="42" viewBox="0 0 42 42" fill="none" xmlns="http://www.w3.org/2000/svg">
<path d="M24.6364 32.8182H32.8182M32.8182 32.8182H41M32.8182 32.8182V24.6364M32.8182 32.8182V41M6.45455 17.3636H11.9091C14.9216 17.3636 17.3636 14.9216 17.3636 11.9091V6.45455C17.3636 3.44208 14.9216 1 11.9091 1H6.45455C3.44208 1 1 3.44208 1 6.45455V11.9091C1 14.9216 3.44208 17.3636 6.45455 17.3636ZM6.45455 41H11.9091C14.9216 41 17.3636 38.5579 17.3636 35.5455V30.0909C17.3636 27.0784 14.9216 24.6364 11.9091 24.6364H6.45455C3.44208 24.6364 1 27.0784 1 30.0909V35.5455C1 38.5579 3.44208 41 6.45455 41ZM30.0909 17.3636H35.5455C38.5579 17.3636 41 14.9216 41 11.9091V6.45455C41 3.44208 38.5579 1 35.5455 1H30.0909C27.0784 1 24.6364 3.44208 24.6364 6.45455V11.9091C24.6364 14.9216 27.0784 17.3636 30.0909 17.3636Z" stroke="black" stroke-width="1.5" stroke-linecap="round" stroke-linejoin="round"/>
</svg>
