<svg width="30" height="29" viewBox="0 0 30 29" fill="none" xmlns="http://www.w3.org/2000/svg">
<path d="M10.674 15.6377L14.1032 18.9392L19.8187 11.2358M28.9634 14.5372C28.9634 16.2715 28.6086 17.9887 27.9192 19.5909C27.2299 21.1931 26.2195 22.6489 24.9457 23.8752C23.672 25.1015 22.1598 26.0742 20.4956 26.7378C18.8314 27.4015 17.0477 27.7431 15.2463 27.7431C13.445 27.7431 11.6613 27.4015 9.99705 26.7378C8.33282 26.0742 6.82067 25.1015 5.54692 23.8752C4.27318 22.6489 3.26279 21.1931 2.57344 19.5909C1.8841 17.9887 1.5293 16.2715 1.5293 14.5372C1.5293 11.0348 2.97448 7.67589 5.54692 5.19932C8.11937 2.72275 11.6084 1.33142 15.2463 1.33142C18.8843 1.33142 22.3733 2.72275 24.9457 5.19932C27.5182 7.67589 28.9634 11.0348 28.9634 14.5372Z" stroke="#48CF26" stroke-width="1.5" stroke-linecap="round" stroke-linejoin="round"/>
</svg>
