<svg width="35" height="35" viewBox="0 0 35 35" fill="none" xmlns="http://www.w3.org/2000/svg">
<circle cx="17.5" cy="17.5" r="17.5" fill="#2E77B1"/>
<g clip-path="url(#clip0_60_41)">
<path d="M7.57764 19.0322V20.939H26.2462C26.771 20.939 27.1714 18.9985 27.1714 18.9985L7.57764 19.0322Z" fill="#2E77B1"/>
<path d="M7.57731 21.4054C7.25377 21.4054 7 21.2004 7 20.9389V19.0319C7 18.7748 7.25897 18.5656 7.57731 18.5656L27.185 18.532C27.348 18.532 27.5166 18.5944 27.6145 18.6911C27.7271 18.8002 27.7704 18.9327 27.7375 19.0653C27.259 21.4054 26.5332 21.4054 26.26 21.4054H7.57731ZM26.0845 20.4837L26.1233 20.4209C26.2108 20.2795 26.3118 20.0287 26.4509 19.6076L26.4982 19.4645L8.16857 19.4985V20.4837H8.30906H26.0845Z" fill="white"/>
<path d="M22.1451 9.5973C21.7447 9.42998 21.2476 9.47467 20.9162 9.72012L7.59131 19.0321H10.077V24.3963C10.077 25.032 10.712 25.5448 11.4991 25.5448C12.2862 25.5448 12.9212 25.032 12.9212 24.3963V19.0321H14.3986V21.5636C14.3986 22.2103 15.0613 22.7458 15.8624 22.7458C16.6632 22.7458 17.3261 22.2105 17.3261 21.5636V19.0321H19.4388C19.646 19.6678 20.3503 20.1362 21.1925 20.1362C22.0349 20.1362 22.7527 19.6678 22.9462 19.0321L27.199 19.021C28.5381 12.8539 23.9539 10.3335 22.1451 9.5973Z" fill="#2E77B1"/>
<path d="M17.7542 13.6567C18.5687 13.6567 19.2179 13.1325 19.2179 12.4745C19.2179 12.0172 18.9003 11.6381 18.4446 11.4375L16.3872 12.876C16.5944 13.3333 17.119 13.6567 17.7542 13.6567Z" fill="#2E77B1"/>
<path d="M17.7542 13.891C17.0222 13.891 16.3595 13.5118 16.1109 12.9542C16.0696 12.865 16.097 12.7647 16.1937 12.6979L18.2511 11.2592C18.3339 11.1923 18.472 11.1811 18.5685 11.2258C19.1484 11.4712 19.4937 11.9507 19.4937 12.4637C19.5079 13.2553 18.7208 13.891 17.7542 13.891ZM16.7322 12.9432C16.9394 13.2444 17.3261 13.4339 17.7542 13.4339C18.4031 13.4339 18.928 13.0102 18.928 12.4859C18.928 12.1848 18.7484 11.906 18.4583 11.7276L16.7322 12.9432Z" fill="white"/>
<path d="M22.601 14.6716C22.4352 15.2404 22.891 15.8203 23.595 15.943C24.0922 16.0322 24.5753 15.8872 24.8793 15.5972L23.7194 13.8464C23.1809 13.9022 22.7252 14.2143 22.601 14.6716Z" fill="#2E77B1"/>
<path d="M23.8849 16.1995C23.7745 16.1995 23.6503 16.1884 23.5399 16.166C22.6837 16.01 22.1315 15.3185 22.3247 14.616C22.4766 14.0919 23.0151 13.6903 23.6917 13.6235C23.8022 13.6124 23.9266 13.6569 23.9817 13.7461L25.1415 15.4859C25.1968 15.5751 25.1829 15.6753 25.1001 15.7424C24.7825 16.0321 24.3407 16.1995 23.8849 16.1995ZM22.877 14.7163C22.8216 14.9394 22.8632 15.1623 23.0148 15.3407C23.1669 15.5302 23.3878 15.6641 23.6638 15.7088C23.9677 15.7645 24.2851 15.6977 24.5337 15.5414L23.581 14.1029C23.2223 14.2032 22.9597 14.4261 22.877 14.7163Z" fill="white"/>
<path d="M11.4853 26.0001C10.3827 26.0001 9.48544 25.2756 9.48544 24.3849V19.4872H7.57755C7.33159 19.4872 7.1237 19.3689 7.04802 19.1857C6.9572 19.0014 7.02389 18.7982 7.21121 18.6735L20.5387 9.35975C20.8476 9.14696 21.2393 9.0293 21.6411 9.0293C21.9057 9.0293 22.1609 9.0782 22.3998 9.17485C24.018 9.83365 29.187 12.4944 27.751 19.0681C27.7072 19.2887 27.4641 19.4537 27.185 19.4537L23.3295 19.4652L23.2905 19.5263C22.8792 20.1695 22.0699 20.569 21.1785 20.569C20.2873 20.569 19.478 20.1696 19.0665 19.5263L19.027 19.4648H17.8896V21.53C17.8896 22.4329 16.9803 23.1674 15.8623 23.1674C14.7444 23.1674 13.8352 22.4329 13.8352 21.5302V19.465H13.4987V24.3627C13.4859 25.2651 12.5827 26.0001 11.4853 26.0001ZM21.6269 9.96277C21.4968 9.96277 21.3764 9.99983 21.2785 10.0701L9.11957 18.5657H10.063C10.2231 18.5657 10.3626 18.6118 10.4556 18.6954C10.5693 18.7875 10.6266 18.9025 10.6266 19.0322V24.3963C10.6266 24.7787 11.0118 25.0899 11.4851 25.0899C11.9666 25.0899 12.3436 24.7852 12.3436 24.3963V19.032C12.3436 18.7749 12.6026 18.5657 12.9209 18.5657H14.3984C14.5582 18.5657 14.6978 18.6118 14.791 18.6954C14.9047 18.7875 14.962 18.9025 14.962 19.0322V21.5636C14.962 21.9583 15.3595 22.2794 15.8481 22.2794C16.3368 22.2794 16.7343 21.9583 16.7343 21.5636V19.0209C16.7343 18.7636 16.9933 18.5545 17.3116 18.5545H19.4243C19.6883 18.5545 19.9111 18.6952 19.9787 18.9046C20.1199 19.3485 20.6132 19.6587 21.178 19.6587C21.7428 19.6587 22.2361 19.3485 22.3773 18.9044C22.445 18.6954 22.6678 18.5546 22.9315 18.5546L26.6992 18.5432L26.716 18.4458C27.6566 13.0077 23.6457 10.7343 21.8776 10.0092C21.792 9.97767 21.7094 9.96277 21.6269 9.96277Z" fill="white"/>
<path d="M27.1849 18.9985C28.5659 12.72 23.7605 10.233 22.0345 9.55284C21.6892 9.41894 21.2749 9.46364 20.9849 9.66439L19.9355 10.4005C22.2278 11.7833 26.0802 14.3373 24.9064 19.01L27.1849 18.9985Z" fill="#2E77B1"/>
<path d="M24.9069 19.4649C24.7392 19.4649 24.5729 19.4009 24.4627 19.2938C24.3528 19.1874 24.3071 19.0438 24.3405 18.9091C25.3513 14.873 22.5002 12.528 19.5782 10.7665C19.4401 10.6891 19.3564 10.5581 19.3443 10.4043C19.3337 10.2656 19.4058 10.1333 19.5425 10.0414L20.594 9.30371C20.8747 9.10792 21.2297 9 21.5935 9C21.8248 9 22.0554 9.04489 22.2609 9.1297C23.9136 9.78066 29.1843 12.4189 27.7234 19.0791C27.6797 19.2999 27.4366 19.4649 27.1577 19.4649H24.9069ZM21.6015 9.93347C21.5062 9.93347 21.4125 9.96136 21.3371 10.0122L20.8352 10.3722L20.9677 10.4561C22.2921 11.2961 26.3226 13.8526 25.5958 18.4041L25.5755 18.532H26.6864L26.7031 18.4342C27.6612 12.8924 23.5683 10.6643 21.7642 9.96346C21.7162 9.94417 21.6594 9.93347 21.6015 9.93347Z" fill="white"/>
<path d="M24.9066 18.9985C24.9066 18.9985 24.7822 20.2252 24.23 20.939H26.2597C26.2597 20.939 26.9777 20.6267 27.1849 18.9985H24.9066Z" fill="#2E77B1"/>
<path d="M24.2303 21.4053C24.0177 21.4053 23.832 21.3154 23.7332 21.1647C23.6298 21.0159 23.6339 20.838 23.7419 20.698C24.1395 20.175 24.3032 19.2465 24.3292 18.9623C24.3507 18.7272 24.5986 18.5432 24.8932 18.5432H27.1715C27.3406 18.5432 27.492 18.5971 27.5875 18.6912C27.7079 18.7984 27.7578 18.921 27.7363 19.0503C27.5021 20.8424 26.6753 21.2817 26.5119 21.3517C26.4457 21.3866 26.3518 21.4053 26.26 21.4053H24.2303ZM25.4041 19.5561C25.3495 19.777 25.2814 20.0518 25.173 20.3368L25.1172 20.4837H26.0434L26.0855 20.4352C26.1805 20.3253 26.3603 20.0713 26.4939 19.6039L26.5336 19.4648H25.4268L25.4041 19.5561Z" fill="white"/>
<path d="M13.9429 16.6678C13.9429 17.0928 14.3693 17.4372 14.8955 17.4372C15.4217 17.4372 15.8482 17.0928 15.8482 16.6678C15.8482 16.2428 15.4217 15.8984 14.8955 15.8984C14.3693 15.8984 13.9429 16.2428 13.9429 16.6678Z" fill="#2E77B1"/>
<path d="M14.8957 17.6716C14.219 17.6716 13.6528 17.2256 13.6528 16.6681C13.6528 16.1105 14.2051 15.6643 14.8957 15.6643C15.586 15.6643 16.1383 16.1103 16.1383 16.6681C16.1383 17.2254 15.586 17.6716 14.8957 17.6716ZM14.8957 16.1327C14.5229 16.1327 14.233 16.3781 14.233 16.6679C14.233 16.9578 14.5367 17.2031 14.8957 17.2031C15.2547 17.2031 15.5584 16.9576 15.5584 16.6679C15.5584 16.3779 15.2684 16.1327 14.8957 16.1327Z" fill="#F6F8FC"/>
<path d="M19.5908 17.4374H17.5885C17.4781 17.4374 17.3813 17.3592 17.3813 17.27V16.9019C17.3813 16.8127 17.4781 16.7346 17.5885 16.7346H19.5908C19.7012 16.7346 19.798 16.8127 19.798 16.9019V17.27C19.8117 17.3592 19.7149 17.4374 19.5908 17.4374Z" fill="#2E77B1"/>
<path d="M19.3695 17.6715H17.823C17.4226 17.6715 17.105 17.415 17.105 17.0916C17.105 16.7682 17.4226 16.5117 17.823 16.5117H19.3695C19.7699 16.5117 20.0875 16.7682 20.0875 17.0916C20.0875 17.415 19.7699 17.6715 19.3695 17.6715ZM17.823 16.9688C17.7402 16.9688 17.6712 17.0246 17.6712 17.0914C17.6712 17.1585 17.7402 17.2143 17.823 17.2143H19.3695C19.4523 17.2143 19.5214 17.1585 19.5214 17.0914C19.5214 17.0246 19.4523 16.9688 19.3695 16.9688H17.823Z" fill="#F6F8FC"/>
<path d="M20.9713 15.7532L19.908 14.8165C19.8666 14.7831 19.8666 14.7273 19.908 14.6939L20.3912 14.3371C20.4326 14.3037 20.5016 14.3037 20.5432 14.3371L21.6066 15.2738C21.648 15.3072 21.648 15.363 21.6066 15.3964L21.1234 15.7532C21.0955 15.7869 21.0127 15.7869 20.9713 15.7532Z" fill="#2E77B1"/>
<path d="M21.0681 15.9763H21.0407C20.9026 15.9763 20.7782 15.9205 20.6817 15.8424L19.7704 15.0506C19.6737 14.9725 19.6323 14.8612 19.6323 14.7496C19.6323 14.6382 19.7014 14.5378 19.7981 14.4597L20.1018 14.2366C20.1985 14.1584 20.3366 14.125 20.4748 14.125C20.6129 14.125 20.737 14.1808 20.8338 14.2589L21.745 15.0506C21.8418 15.1288 21.8831 15.2403 21.8831 15.3519C21.8831 15.4634 21.8141 15.5637 21.7174 15.6418L21.4137 15.8649C21.3167 15.9316 21.1923 15.9763 21.0681 15.9763ZM20.2397 14.7607L21.0681 15.4856L21.289 15.3182L20.4606 14.5934L20.2397 14.7607Z" fill="white"/>
</g>
<defs>
<clipPath id="clip0_60_41">
<rect width="21" height="17" fill="white" transform="translate(7 9)"/>
</clipPath>
</defs>
</svg>
