<svg width="29" height="33" viewBox="0 0 29 33" fill="none" xmlns="http://www.w3.org/2000/svg">
<path d="M18.25 11.4738V5.22375C18.25 4.22919 17.8549 3.27537 17.1516 2.5721C16.4484 1.86884 15.4946 1.47375 14.5 1.47375H4.5C3.50544 1.47375 2.55161 1.86884 1.84835 2.5721C1.14509 3.27537 0.75 4.22919 0.75 5.22375V27.7238C0.75 28.7183 1.14509 29.6721 1.84835 30.3754C2.55161 31.0787 3.50544 31.4738 4.5 31.4738H14.5C15.4946 31.4738 16.4484 31.0787 17.1516 30.3754C17.8549 29.6721 18.25 28.7183 18.25 27.7238V21.4738M23.25 21.4738L28.25 16.4738M28.25 16.4738L23.25 11.4738M28.25 16.4738H7" stroke="#F6F8FC" stroke-width="1.5" stroke-linecap="round" stroke-linejoin="round"/>
</svg>
