<svg width="34" height="33" viewBox="0 0 34 33" fill="none" xmlns="http://www.w3.org/2000/svg">
<path d="M30.75 10.6588C32.2233 11.1321 33.25 12.5388 33.25 14.1538V21.2971C33.25 23.1904 31.8383 24.7971 29.95 24.9521C29.3833 24.9971 28.8167 25.0388 28.25 25.0721V30.2238L23.25 25.2238C20.9933 25.2238 18.76 25.1321 16.55 24.9521C16.0689 24.9132 15.6009 24.7759 15.175 24.5488M30.75 10.6588C30.4925 10.5759 30.2263 10.5227 29.9567 10.5004C25.4932 10.1299 21.0068 10.1299 16.5433 10.5004C14.6583 10.6571 13.25 12.2621 13.25 14.1538V21.2971C13.25 22.6921 14.0167 23.9304 15.175 24.5488M30.75 10.6588V7.53542C30.75 4.83376 28.83 2.49209 26.15 2.14376C22.7014 1.69674 19.2275 1.47294 15.75 1.47376C12.225 1.47376 8.75333 1.70209 5.35 2.14376C2.67 2.49209 0.75 4.83376 0.75 7.53542V17.9121C0.75 20.6138 2.67 22.9554 5.35 23.3038C6.31167 23.4288 7.27833 23.5371 8.25 23.6271V31.4738L15.175 24.5488" stroke="#F6F8FC" stroke-width="1.5" stroke-linecap="round" stroke-linejoin="round"/>
</svg>
