<svg width="50" height="50" viewBox="0 0 50 50" fill="none" xmlns="http://www.w3.org/2000/svg">
<circle cx="25" cy="25" r="25" fill="black"/>
<path d="M12.8125 26.875H17.6375C18.1597 26.8751 18.6716 27.0207 19.1158 27.2953C19.56 27.57 19.919 27.9629 20.1525 28.43L20.4725 29.07C20.7061 29.5373 21.0652 29.9304 21.5097 30.205C21.9541 30.4797 22.4663 30.6251 22.9887 30.625H27.0113C27.5337 30.6251 28.0459 30.4797 28.4903 30.205C28.9348 29.9304 29.2939 29.5373 29.5275 29.07L29.8475 28.43C30.0811 27.9627 30.4402 27.5696 30.8847 27.295C31.3291 27.0203 31.8413 26.8749 32.3638 26.875H37.1875M12.8125 27.2975V32.5C12.8125 33.2459 13.1088 33.9613 13.6363 34.4887C14.1637 35.0162 14.8791 35.3125 15.625 35.3125H34.375C35.1209 35.3125 35.8363 35.0162 36.3637 34.4887C36.8912 33.9613 37.1875 33.2459 37.1875 32.5V27.2975C37.1875 27.0175 37.145 26.7388 37.0625 26.4713L34.05 16.6725C33.8731 16.0978 33.5166 15.5949 33.0329 15.2377C32.5493 14.8804 31.9638 14.6876 31.3625 14.6875H18.6387C18.0374 14.6876 17.452 14.8804 16.9683 15.2377C16.4846 15.5949 16.1282 16.0978 15.9513 16.6725L12.9375 26.4713C12.8549 26.7389 12.8128 27.0174 12.8125 27.2975Z" stroke="white" stroke-width="1.5" stroke-linecap="round" stroke-linejoin="round"/>
</svg>
