<svg width="20" height="20" viewBox="0 0 20 20" fill="none" xmlns="http://www.w3.org/2000/svg">
<path d="M10.9917 7.24002C11.5332 7.49857 12.0048 7.8833 12.3668 8.36189C12.7288 8.84048 12.9706 9.39895 13.072 9.9904C13.1735 10.5818 13.1314 11.189 12.9495 11.7608C12.7676 12.3327 12.4512 12.8525 12.0267 13.2767L8.27669 17.0267C7.57342 17.73 6.61959 18.125 5.62502 18.125C4.63046 18.125 3.67662 17.73 2.97336 17.0267C2.27009 16.3234 1.875 15.3696 1.875 14.375C1.875 13.3805 2.27009 12.4266 2.97336 11.7234L4.43752 10.2592M15.5625 9.74086L17.0267 8.27669C17.73 7.57342 18.125 6.61959 18.125 5.62502C18.125 4.63046 17.73 3.67662 17.0267 2.97336C16.3234 2.27009 15.3696 1.875 14.375 1.875C13.3805 1.875 12.4266 2.27009 11.7234 2.97336L7.97336 6.72336C7.54889 7.14752 7.23241 7.66736 7.05051 8.23921C6.86861 8.81105 6.82659 9.4182 6.928 10.0096C7.0294 10.6011 7.27126 11.1596 7.63327 11.6382C7.99527 12.1167 8.46683 12.5015 9.00836 12.76" stroke="black" stroke-width="1.5" stroke-linecap="round" stroke-linejoin="round"/>
</svg>
