<svg width="50" height="50" viewBox="0 0 50 50" fill="none" xmlns="http://www.w3.org/2000/svg">
<circle cx="25" cy="25" r="25" fill="black"/>
<path d="M28.75 23.125C28.75 24.1196 28.3549 25.0734 27.6517 25.7767C26.9484 26.4799 25.9946 26.875 25 26.875C24.0054 26.875 23.0516 26.4799 22.3483 25.7767C21.6451 25.0734 21.25 24.1196 21.25 23.125C21.25 22.1304 21.6451 21.1766 22.3483 20.4733C23.0516 19.7701 24.0054 19.375 25 19.375C25.9946 19.375 26.9484 19.7701 27.6517 20.4733C28.3549 21.1766 28.75 22.1304 28.75 23.125Z" stroke="white" stroke-width="1.5" stroke-linecap="round" stroke-linejoin="round"/>
<path d="M34.375 23.125C34.375 32.0525 25 37.1875 25 37.1875C25 37.1875 15.625 32.0525 15.625 23.125C15.625 20.6386 16.6127 18.254 18.3709 16.4959C20.129 14.7377 22.5136 13.75 25 13.75C27.4864 13.75 29.871 14.7377 31.6291 16.4959C33.3873 18.254 34.375 20.6386 34.375 23.125Z" stroke="#D9D9D9" stroke-width="1.5" stroke-linecap="round" stroke-linejoin="round"/>
</svg>
