<svg width="30" height="32" viewBox="0 0 30 32" fill="none" xmlns="http://www.w3.org/2000/svg">
<path d="M18.5 11V4.75C18.5 3.75544 18.1049 2.80161 17.4016 2.09835C16.6984 1.39509 15.7446 1 14.75 1H4.75C3.75544 1 2.80161 1.39509 2.09835 2.09835C1.39509 2.80161 1 3.75544 1 4.75V27.25C1 28.2446 1.39509 29.1984 2.09835 29.9016C2.80161 30.6049 3.75544 31 4.75 31H14.75C15.7446 31 16.6984 30.6049 17.4016 29.9016C18.1049 29.1984 18.5 28.2446 18.5 27.25V21M23.5 21L28.5 16M28.5 16L23.5 11M28.5 16H7.25" stroke="black" stroke-width="1.5" stroke-linecap="round" stroke-linejoin="round"/>
</svg>
