<svg width="40" height="40" viewBox="0 0 40 40" fill="none" xmlns="http://www.w3.org/2000/svg">
<path d="M26.25 15V8.75C26.25 7.75544 25.8549 6.80161 25.1516 6.09835C24.4484 5.39509 23.4946 5 22.5 5H12.5C11.5054 5 10.5516 5.39509 9.84835 6.09835C9.14509 6.80161 8.75 7.75544 8.75 8.75V31.25C8.75 32.2446 9.14509 33.1984 9.84835 33.9016C10.5516 34.6049 11.5054 35 12.5 35H22.5C23.4946 35 24.4484 34.6049 25.1516 33.9016C25.8549 33.1984 26.25 32.2446 26.25 31.25V25M20 15L15 20M15 20L20 25M15 20H36.25" stroke="black" stroke-width="1.5" stroke-linecap="round" stroke-linejoin="round"/>
</svg>