<svg width="27" height="27" viewBox="0 0 27 27" fill="none" xmlns="http://www.w3.org/2000/svg">
<path d="M16.7298 19.2022C18.8 18.9571 20.8341 18.4685 22.7898 17.7467C21.1336 15.912 20.2184 13.5272 20.222 11.0556V10.2778V10.2222C20.222 8.45411 19.5197 6.75842 18.2694 5.50818C17.0192 4.25793 15.3235 3.55556 13.5554 3.55556C11.7873 3.55556 10.0916 4.25793 8.84134 5.50818C7.59109 6.75842 6.88871 8.45411 6.88871 10.2222V11.0556C6.89207 13.5274 5.97648 15.9122 4.31982 17.7467C6.24538 18.4578 8.27538 18.9522 10.3809 19.2022M16.7298 19.2022C14.6209 19.4524 12.4898 19.4524 10.3809 19.2022M16.7298 19.2022C16.8899 19.7021 16.9298 20.2327 16.846 20.7508C16.7623 21.2689 16.5574 21.76 16.248 22.184C15.9386 22.608 15.5335 22.9529 15.0656 23.1907C14.5977 23.4285 14.0802 23.5524 13.5554 23.5524C13.0305 23.5524 12.5131 23.4285 12.0452 23.1907C11.5773 22.9529 11.1721 22.608 10.8627 22.184C10.5533 21.76 10.3485 21.2689 10.2647 20.7508C10.181 20.2327 10.2208 19.7021 10.3809 19.2022" stroke="black" stroke-width="1.5" stroke-linecap="round" stroke-linejoin="round"/>
</svg>
