<svg width="56" height="56" viewBox="0 0 56 56" fill="none" xmlns="http://www.w3.org/2000/svg">
<path d="M0 28C0 12.536 12.536 0 28 0V0C43.464 0 56 12.536 56 28V28C56 43.464 43.464 56 28 56V56C12.536 56 0 43.464 0 28V28Z" fill="#F36A3E"/>
<path d="M41 42L33.2048 33.9161M33.2048 33.9161C35.3146 31.7282 36.4999 28.7608 36.4999 25.6666C36.4999 22.5724 35.3146 19.605 33.2048 17.4171C31.0951 15.2292 28.2336 14 25.2499 14C22.2663 14 19.4048 15.2292 17.295 17.4171C15.1853 19.605 14 22.5724 14 25.6666C14 28.7608 15.1853 31.7282 17.295 33.9161C19.4048 36.104 22.2663 37.3332 25.2499 37.3332C28.2336 37.3332 31.0951 36.104 33.2048 33.9161Z" stroke="black" stroke-width="1.5" stroke-linecap="round" stroke-linejoin="round"/>
</svg>
