<svg width="50" height="50" viewBox="0 0 50 50" fill="none" xmlns="http://www.w3.org/2000/svg">
<circle cx="25" cy="25" r="25" fill="black"/>
<path d="M13 18.5385C13 28.7342 21.2658 37 31.4615 37H34.2308C34.9652 37 35.6696 36.7082 36.1889 36.1889C36.7082 35.6696 37 34.9652 37 34.2308V32.5422C37 31.9071 36.568 31.3532 35.9514 31.1994L30.5077 29.8382C29.9662 29.7028 29.3975 29.9058 29.064 30.3514L27.8702 31.9428C27.5231 32.4055 26.9237 32.6098 26.3809 32.4105C24.366 31.6697 22.5362 30.4998 21.0182 28.9818C19.5002 27.4638 18.3303 25.634 17.5895 23.6191C17.3902 23.0763 17.5945 22.4769 18.0572 22.1298L19.6486 20.936C20.0954 20.6025 20.2972 20.0326 20.1618 19.4923L18.8006 14.0486C18.7257 13.7492 18.5529 13.4833 18.3096 13.2933C18.0663 13.1033 17.7665 13.0001 17.4578 13H15.7692C15.0348 13 14.3304 13.2918 13.8111 13.8111C13.2918 14.3304 13 15.0348 13 15.7692V18.5385Z" stroke="white" stroke-width="1.5" stroke-linecap="round" stroke-linejoin="round"/>
</svg>
