<svg width="35" height="35" viewBox="0 0 35 35" fill="none" xmlns="http://www.w3.org/2000/svg">
<circle cx="17.5" cy="17.5" r="17.5" fill="#2E77B1"/>
<path d="M18.7868 11.1343C20.2082 9.6219 22.5126 9.6219 23.934 11.1343C25.3553 12.6467 25.3553 15.0988 23.934 16.6112L16.2132 24.8265C14.7918 26.3389 12.4874 26.3389 11.066 24.8265C9.64466 23.3141 9.64466 20.862 11.066 19.3496L18.7868 11.1343Z" fill="#2E77B1"/>
<path fill-rule="evenodd" clip-rule="evenodd" d="M24.4163 17.1247L16.6956 25.34C15.0077 27.136 12.2711 27.136 10.5833 25.34C8.89542 23.5441 8.89542 20.6322 10.5833 18.8362L18.3041 10.6209C19.9919 8.82493 22.7285 8.82493 24.4163 10.6209C26.1042 12.4169 26.1042 15.3287 24.4163 17.1247ZM23.9338 11.1344C22.5124 9.62197 20.208 9.62196 18.7866 11.1344L11.0658 19.3497C9.64447 20.8621 9.64447 23.3142 11.0658 24.8266C12.4872 26.339 14.7917 26.339 16.213 24.8266L23.9338 16.6112C25.3552 15.0988 25.3552 12.6468 23.9338 11.1344Z" fill="white"/>
<path fill-rule="evenodd" clip-rule="evenodd" d="M11.1401 24.903C12.5664 26.3384 14.8164 26.3129 16.2133 24.8265L23.9341 16.6111C25.3555 15.0987 25.3555 12.6466 23.9341 11.1342C23.6077 10.7869 23.2347 10.5193 22.8365 10.3315C22.8614 10.3566 22.8861 10.3821 22.9105 10.4081C24.3318 11.9205 24.3318 14.3726 22.9105 15.885L15.1897 24.1003C14.0948 25.2654 12.4758 25.5329 11.1401 24.903Z" fill="#2E77B1"/>
<path d="M11.066 19.3496C9.64466 20.862 9.64466 23.3141 11.066 24.8265C12.4874 26.3389 14.7918 26.3389 16.2132 24.8265L20.0736 20.7188L14.9264 15.2419L11.066 19.3496Z" fill="white"/>
<path fill-rule="evenodd" clip-rule="evenodd" d="M16.2133 24.8266C14.8164 26.313 12.5664 26.3386 11.1401 24.9032C12.4758 25.5331 14.0948 25.2655 15.1897 24.1005L19.2207 19.8113L20.0737 20.719L16.2133 24.8266Z" fill="white"/>
<path d="M17.1911 22.2724C17.1911 22.5732 16.962 22.817 16.6793 22.817C16.3966 22.817 16.1675 22.5732 16.1675 22.2724C16.1675 21.9716 16.3966 21.7278 16.6793 21.7278C16.962 21.7278 17.1911 21.9716 17.1911 22.2724Z" fill="#2E77B1"/>
<path d="M15.6046 24.1054C15.6046 24.4877 15.3134 24.7975 14.9541 24.7975C14.5949 24.7975 14.3037 24.4877 14.3037 24.1054C14.3037 23.7232 14.5949 23.4133 14.9541 23.4133C15.3134 23.4133 15.6046 23.7232 15.6046 24.1054Z" fill="#2E77B1"/>
<path d="M15.6049 22.3955C15.6049 22.6282 15.4276 22.8168 15.209 22.8168C14.9903 22.8168 14.813 22.6282 14.813 22.3955C14.813 22.1628 14.9903 21.9741 15.209 21.9741C15.4276 21.9741 15.6049 22.1628 15.6049 22.3955Z" fill="#2E77B1"/>
<path d="M13.7709 24.7976C13.7709 25.0303 13.5937 25.2189 13.375 25.2189C13.1563 25.2189 12.979 25.0303 12.979 24.7976C12.979 24.5649 13.1563 24.3762 13.375 24.3762C13.5937 24.3762 13.7709 24.5649 13.7709 24.7976Z" fill="#2E77B1"/>
<path d="M13.9199 23.3393C13.9199 23.572 13.7426 23.7606 13.5239 23.7606C13.3052 23.7606 13.1279 23.572 13.1279 23.3393C13.1279 23.1066 13.3052 22.918 13.5239 22.918C13.7426 22.918 13.9199 23.1066 13.9199 23.3393Z" fill="#2E77B1"/>
<path d="M12.4912 23.9548C12.4912 24.1875 12.3139 24.3761 12.0952 24.3761C11.8765 24.3761 11.6992 24.1875 11.6992 23.9548C11.6992 23.7221 11.8765 23.5334 12.0952 23.5334C12.3139 23.5334 12.4912 23.7221 12.4912 23.9548Z" fill="#2E77B1"/>
<path d="M18.5048 21.3063C18.5048 21.539 18.3276 21.7277 18.1089 21.7277C17.8902 21.7277 17.7129 21.539 17.7129 21.3063C17.7129 21.0736 17.8902 20.885 18.1089 20.885C18.3276 20.885 18.5048 21.0736 18.5048 21.3063Z" fill="#2E77B1"/>
<path fill-rule="evenodd" clip-rule="evenodd" d="M21.065 11.3074C21.3249 11.5978 21.3144 12.0574 21.0415 12.334L17.4587 15.9647C17.1858 16.2413 16.7538 16.2301 16.4939 15.9397C16.234 15.6492 16.2445 15.1896 16.5175 14.913L20.1002 11.2823C20.3731 11.0058 20.8051 11.017 21.065 11.3074Z" fill="#C1B3EA"/>
<path fill-rule="evenodd" clip-rule="evenodd" d="M21.0624 11.3045C21.3238 11.5934 21.3157 12.053 21.0442 12.3312L19.8926 13.5112C19.6211 13.7894 19.1891 13.7807 18.9277 13.4918C18.6662 13.203 18.6744 12.7433 18.9459 12.4651L20.0975 11.2851C20.369 11.0069 20.801 11.0156 21.0624 11.3045Z" fill="white"/>
</svg>
