<svg width="40" height="40" viewBox="0 0 40 40" fill="none" xmlns="http://www.w3.org/2000/svg">
<path d="M15.9902 6.56667C16.1402 5.66333 16.9235 5 17.8402 5H22.1618C23.0785 5 23.8618 5.66333 24.0118 6.56667L24.3668 8.70167C24.4718 9.325 24.8885 9.845 25.4418 10.1517C25.5652 10.2183 25.6868 10.29 25.8085 10.3633C26.3485 10.69 27.0085 10.7917 27.6002 10.57L29.6285 9.81C30.0442 9.65368 30.5018 9.64996 30.92 9.79952C31.3381 9.94908 31.6896 10.2422 31.9118 10.6267L34.0718 14.3717C34.2936 14.7562 34.3718 15.2069 34.2924 15.6436C34.2131 16.0803 33.9814 16.4747 33.6385 16.7567L31.9668 18.135C31.4785 18.535 31.2368 19.1567 31.2485 19.7883C31.2512 19.93 31.2512 20.0717 31.2485 20.2133C31.2368 20.8433 31.4785 21.4633 31.9652 21.8633L33.6402 23.2433C34.3468 23.8267 34.5302 24.8333 34.0735 25.6267L31.9102 29.3717C31.6883 29.7561 31.3372 30.0493 30.9194 30.1991C30.5016 30.349 30.0442 30.3457 29.6285 30.19L27.6002 29.43C27.0085 29.2083 26.3502 29.31 25.8068 29.6367C25.686 29.7101 25.5638 29.7813 25.4402 29.85C24.8885 30.155 24.4718 30.675 24.3668 31.2983L24.0118 33.4317C23.8618 34.3367 23.0785 35 22.1618 35H17.8385C16.9218 35 16.1385 34.3367 15.9885 33.4333L15.6335 31.2983C15.5302 30.675 15.1135 30.155 14.5602 29.8483C14.4366 29.7802 14.3143 29.7096 14.1935 29.6367C13.6518 29.31 12.9935 29.2083 12.4002 29.43L10.3718 30.19C9.95639 30.3459 9.49912 30.3494 9.08135 30.1998C8.66357 30.0503 8.31236 29.7574 8.09018 29.3733L5.92851 25.6283C5.70675 25.2438 5.62859 24.7931 5.70794 24.3564C5.78729 23.9197 6.019 23.5253 6.36185 23.2433L8.03518 21.865C8.52185 21.465 8.76351 20.8433 8.75185 20.2117C8.74924 20.07 8.74924 19.9283 8.75185 19.7867C8.76351 19.1567 8.52185 18.5367 8.03518 18.1367L6.36185 16.7567C6.01941 16.4748 5.78797 16.0807 5.70863 15.6444C5.6293 15.208 5.7072 14.7577 5.92851 14.3733L8.09018 10.6283C8.31216 10.2436 8.66353 9.9501 9.0817 9.80023C9.49987 9.65036 9.95766 9.65382 10.3735 9.81L12.4002 10.57C12.9935 10.7917 13.6518 10.69 14.1935 10.3633C14.3135 10.29 14.4368 10.2183 14.5602 10.15C15.1135 9.845 15.5302 9.325 15.6335 8.70167L15.9902 6.56667Z" stroke="black" stroke-width="1.5" stroke-linecap="round" stroke-linejoin="round"/>
<path d="M25 20C25 21.3261 24.4732 22.5979 23.5355 23.5355C22.5979 24.4732 21.3261 25 20 25C18.6739 25 17.4021 24.4732 16.4645 23.5355C15.5268 22.5979 15 21.3261 15 20C15 18.6739 15.5268 17.4021 16.4645 16.4645C17.4021 15.5268 18.6739 15 20 15C21.3261 15 22.5979 15.5268 23.5355 16.4645C24.4732 17.4021 25 18.6739 25 20Z" stroke="black" stroke-width="1.5" stroke-linecap="round" stroke-linejoin="round"/>
</svg>
