<svg width="35" height="35" viewBox="0 0 35 35" fill="none" xmlns="http://www.w3.org/2000/svg">
<circle cx="17.5" cy="17.5" r="17.5" fill="#2E77B1"/>
<path d="M17.5 9V11.125M23.5104 11.4896L22.0078 12.9922M26 17.5H23.875M23.5104 23.5104L22.0078 22.0078M17.5 23.875V26M12.9922 22.0078L11.4896 23.5104M11.125 17.5H9M12.9922 12.9922L11.4896 11.4896M21.0417 17.5C21.0417 18.4393 20.6685 19.3401 20.0043 20.0043C19.3401 20.6685 18.4393 21.0417 17.5 21.0417C16.5607 21.0417 15.6599 20.6685 14.9957 20.0043C14.3315 19.3401 13.9583 18.4393 13.9583 17.5C13.9583 16.5607 14.3315 15.6599 14.9957 14.9957C15.6599 14.3315 16.5607 13.9583 17.5 13.9583C18.4393 13.9583 19.3401 14.3315 20.0043 14.9957C20.6685 15.6599 21.0417 16.5607 21.0417 17.5Z" stroke="white" stroke-linecap="round" stroke-linejoin="round"/>
</svg>
