<svg width="50" height="50" viewBox="0 0 50 50" fill="none" xmlns="http://www.w3.org/2000/svg">
<circle cx="25" cy="25" r="25" fill="black"/>
<path d="M25 15V25H32.5M40 25C40 26.9698 39.612 28.9204 38.8582 30.7403C38.1044 32.5601 36.9995 34.2137 35.6066 35.6066C34.2137 36.9995 32.5601 38.1044 30.7403 38.8582C28.9204 39.612 26.9698 40 25 40C23.0302 40 21.0796 39.612 19.2597 38.8582C17.4399 38.1044 15.7863 36.9995 14.3934 35.6066C13.0005 34.2137 11.8956 32.5601 11.1418 30.7403C10.388 28.9204 10 26.9698 10 25C10 21.0218 11.5804 17.2064 14.3934 14.3934C17.2064 11.5804 21.0218 10 25 10C28.9782 10 32.7936 11.5804 35.6066 14.3934C38.4196 17.2064 40 21.0218 40 25Z" stroke="white" stroke-width="1.5" stroke-linecap="round" stroke-linejoin="round"/>
</svg>
