<svg width="22" height="18" viewBox="0 0 22 18" fill="none" xmlns="http://www.w3.org/2000/svg">
<path d="M11 7.5V13.5M14 10.5H8M12.06 3.31L9.94 1.19C9.80073 1.05055 9.63534 0.939918 9.45328 0.864421C9.27123 0.788923 9.07609 0.750042 8.879 0.75H3.5C2.90326 0.75 2.33097 0.987053 1.90901 1.40901C1.48705 1.83097 1.25 2.40326 1.25 3V15C1.25 15.5967 1.48705 16.169 1.90901 16.591C2.33097 17.0129 2.90326 17.25 3.5 17.25H18.5C19.0967 17.25 19.669 17.0129 20.091 16.591C20.5129 16.169 20.75 15.5967 20.75 15V6C20.75 5.40326 20.5129 4.83097 20.091 4.40901C19.669 3.98705 19.0967 3.75 18.5 3.75H13.121C12.7233 3.74965 12.341 3.59138 12.06 3.31Z" stroke="white" stroke-width="1.5" stroke-linecap="round" stroke-linejoin="round"/>
</svg>
