<svg width="35" height="35" viewBox="0 0 35 35" fill="none" xmlns="http://www.w3.org/2000/svg">
<circle cx="17.5" cy="17.5" r="17.5" fill="#2E77B1"/>
<path d="M15.0779 29C14.5294 29 14.0031 28.7301 13.6139 28.2492C13.2246 27.7683 13.004 27.1154 13.0001 26.4328V23.9432C13.0007 23.3027 13.1945 22.6857 13.5433 22.2146L13.7214 21.9708L13.5076 21.775C13.3501 21.6329 13.222 21.4463 13.1337 21.2305C13.0455 21.0148 12.9997 20.776 13.0001 20.5339V19.9171C12.9974 19.5484 13.103 19.1911 13.2969 18.9124L13.4305 18.7203L13.2969 18.5282C13.1032 18.2507 12.9976 17.8947 13.0001 17.5272V16.9067C12.9978 16.5369 13.1032 16.1787 13.2969 15.8983L13.4305 15.7062L13.2969 15.5104C13.1027 15.2318 12.9971 14.8745 13.0001 14.5057V13.6303C13.0001 13.4678 13.0505 11.9903 15.5053 8.18199L15.8022 7.70181H14.9977C14.9229 7.70181 14.8512 7.66484 14.7983 7.59903C14.7455 7.53322 14.7157 7.44397 14.7157 7.3509C14.7157 7.25783 14.7455 7.16858 14.7983 7.10277C14.8512 7.03696 14.9229 7 14.9977 7H19.9904C20.0652 7 20.137 7.03696 20.1898 7.10277C20.2427 7.16858 20.2724 7.25783 20.2724 7.3509C20.2724 7.44397 20.2427 7.53322 20.1898 7.59903C20.137 7.66484 20.0652 7.70181 19.9904 7.70181H19.1831L19.4947 8.18199C21.9495 11.9866 22 13.4788 22 13.634V14.5057C21.9973 14.8794 21.8854 15.2391 21.6854 15.5178L21.5488 15.7099L21.6854 15.9056C21.877 16.1846 21.9822 16.5396 21.9822 16.9067V17.5272C21.9833 17.8945 21.8779 18.2499 21.6854 18.5282L21.5518 18.7203L21.6854 18.9124C21.8781 19.192 21.9835 19.5487 21.9822 19.9171V20.5339C21.982 20.7763 21.9356 21.0151 21.8469 21.2309C21.7581 21.4466 21.6295 21.6331 21.4716 21.775L21.2609 21.9708L21.439 22.2146C21.7877 22.6857 21.9816 23.3027 21.9822 23.9432V26.4328C21.9783 27.1154 21.7576 27.7683 21.3684 28.2492C20.9791 28.7301 20.4529 29 19.9044 29H15.0779ZM15.0304 22.0816C14.6424 22.0922 14.2733 22.2915 14.002 22.6367C13.7307 22.9819 13.5788 23.4456 13.5789 23.9285V26.4181C13.5797 26.9125 13.7378 27.3864 14.0188 27.736C14.2997 28.0856 14.6806 28.2824 15.0779 28.2834H19.9519C20.3492 28.2824 20.73 28.0856 21.0109 27.736C21.2919 27.3864 21.4501 26.9125 21.4509 26.4181V23.9285C21.4509 23.445 21.2987 22.9807 21.0267 22.6354C20.7548 22.2901 20.3848 22.0913 19.9964 22.0816H18.0462C17.9714 22.0816 17.8997 22.0446 17.8468 21.9788C17.7939 21.913 17.7642 21.8238 17.7642 21.7307C17.7642 21.6376 17.7939 21.5484 17.8468 21.4826C17.8997 21.4168 17.9714 21.3798 18.0462 21.3798H20.7681C20.8574 21.3798 20.9458 21.3579 21.0283 21.3154C21.1107 21.2729 21.1857 21.2106 21.2488 21.132C21.3119 21.0535 21.362 20.9602 21.3961 20.8576C21.4303 20.755 21.4479 20.645 21.4479 20.5339V19.9171C21.4471 19.6949 21.3765 19.482 21.2511 19.3239C21.1257 19.1658 20.9555 19.075 20.7771 19.0712H18.0729C18.0283 19.0894 17.9809 19.0942 17.9345 19.0853C17.8882 19.0763 17.8442 19.0537 17.8062 19.0195C17.7682 18.9852 17.7372 18.9403 17.7159 18.8883C17.6945 18.8362 17.6834 18.7787 17.6834 18.7203C17.6834 18.6619 17.6945 18.6043 17.7159 18.5523C17.7372 18.5003 17.7682 18.4553 17.8062 18.4211C17.8442 18.3868 17.8882 18.3643 17.9345 18.3553C17.9809 18.3463 18.0283 18.3511 18.0729 18.3694H20.7681C20.9477 18.3684 21.1197 18.2795 21.2469 18.1219C21.3741 17.9642 21.4463 17.7506 21.4479 17.5272V16.9067C21.4471 16.6826 21.3752 16.468 21.2479 16.3096C21.1206 16.1512 20.9482 16.0618 20.7681 16.0608H18.0462C18.0016 16.079 17.9542 16.0838 17.9078 16.0748C17.8615 16.0659 17.8175 16.0433 17.7795 16.0091C17.7414 15.9748 17.7105 15.9298 17.6891 15.8778C17.6678 15.8258 17.6567 15.7683 17.6567 15.7099C17.6567 15.6515 17.6678 15.5939 17.6891 15.5419C17.7105 15.4899 17.7414 15.4449 17.7795 15.4107C17.8175 15.3764 17.8615 15.3539 17.9078 15.3449C17.9542 15.3359 18.0016 15.3407 18.0462 15.359H19.3552H20.78C20.9601 15.358 21.1325 15.2686 21.2598 15.1101C21.3871 14.9517 21.459 14.7371 21.4598 14.5131V13.5158L21.4123 13.3422C21.2698 12.7253 20.7147 11.0225 18.5389 7.80154L18.4677 7.69811H16.562L16.4908 7.80154C13.6798 11.9533 13.5759 13.5601 13.5729 13.6266V14.502C13.5729 14.6131 13.5905 14.7231 13.6247 14.8257C13.6588 14.9283 13.7089 15.0216 13.772 15.1001C13.8352 15.1787 13.9101 15.241 13.9926 15.2835C14.075 15.326 14.1634 15.3479 14.2527 15.3479H14.7929H15.0304H15.3747C15.4341 15.3722 15.4858 15.4192 15.5225 15.4822C15.5591 15.5452 15.5789 15.621 15.5789 15.6988C15.5789 15.7766 15.5591 15.8524 15.5225 15.9154C15.4858 15.9784 15.4341 16.0254 15.3747 16.0497H14.2586C14.0783 16.0497 13.9055 16.1388 13.778 16.2974C13.6505 16.4561 13.5789 16.6712 13.5789 16.8956V17.5161C13.5796 17.7373 13.65 17.9493 13.7748 18.1067C13.8996 18.2641 14.069 18.3544 14.2468 18.3583H15.3747C15.4495 18.3583 15.5212 18.3953 15.5741 18.4611C15.627 18.5269 15.6567 18.6161 15.6567 18.7092C15.6567 18.8023 15.627 18.8915 15.5741 18.9573C15.5212 19.0231 15.4495 19.0601 15.3747 19.0601H14.2497C14.0715 19.064 13.9016 19.1548 13.7767 19.313C13.6518 19.4712 13.5818 19.6842 13.5819 19.906V20.5228C13.5815 20.634 13.5988 20.7443 13.6328 20.8471C13.6668 20.95 13.7169 21.0434 13.7801 21.122C13.8433 21.2007 13.9184 21.263 14.001 21.3053C14.0836 21.3476 14.1722 21.3692 14.2616 21.3687H15.3747C15.4495 21.3687 15.5212 21.4057 15.5741 21.4715C15.627 21.5373 15.6567 21.6265 15.6567 21.7196C15.6567 21.8127 15.627 21.9019 15.5741 21.9677C15.5212 22.0336 15.4495 22.0705 15.3747 22.0705H15.0334L15.0304 22.0816Z" fill="white"/>
<path d="M18.5055 7V5.34933C18.5048 5.22444 18.4766 5.105 18.4268 5.01668C18.377 4.92837 18.3096 4.87824 18.2392 4.87707H16.7481C16.6777 4.87824 16.6103 4.92837 16.5605 5.01668C16.5108 5.105 16.4825 5.22444 16.4818 5.34933V7H16V5.34933C16 4.99532 16.0784 4.65548 16.2183 4.40307C16.3583 4.15066 16.5485 4.0059 16.7481 4H18.2392C18.441 4 18.6345 4.14216 18.7772 4.39521C18.9198 4.64825 19 4.99146 19 5.34933V7H18.5055Z" fill="white"/>
</svg>
